ply
format ascii 1.0
comment PCL generated
element vertex 4
property float x
property float y
property float z
property uchar red
property uchar green
property uchar blue
property float nx
property float ny
property float nz
property float curvature
element camera 1
property float view_px
property float view_py
property float view_pz
property float x_axisx
property float x_axisy
property float x_axisz
property float y_axisx
property float y_axisy
property float y_axisz
property float z_axisx
property float z_axisy
property float z_axisz
property float focal
property float scalex
property float scaley
property float centerx
property float centery
property int viewportx
property int viewporty
property float k1
property float k2
end_header
0 0 2 240 60 30 0 0 1 0
1.63299 -0.94280899 -0.66666698 60 240 30 1 0 0 0
0 1.88562 -0.66666698 60 30 240 0 1 0 0
-1.63299 -0.94280899 -0.66666698 200 160 240 -1 0 0 0
0 0 0 1 0 0 0 1 0 0 0 1 0 0 0 0 0 4 1 0 0
