ply
format ascii 1.0
element vertex 595
property float x
property float y
property float z
property float s
property float t
element face 622
property list uchar int vertex_indices
end_header
2.8646531 -0.091577001 0.617746 0.152895 0.65289003
2.806746 -0.091577001 0.86188 0.28269401 0.165098
1.313904 -0.091577001 0.86187899 0.282208 0.0050920001
1.2671421 -0.091577001 0.61774498 0.152375 0.48166499
2.8646531 0.091577001 0.617746 0.19174001 0.65276903
2.806746 0.091577001 0.86188 0.124039 0.48767099
1.313904 0.091577001 0.86187899 0.123553 0.647677
1.267141 0.091577001 0.617746 0.19122 0.481545
2.065897 -0.091577001 0.86188 0.282453 0.085693002
2.065897 0.091577001 0.86188 0.123798 0.56707698
2.8646531 0 0.86188 0.58745998 0.019711001
1.267141 0 0.86187899 0.33454999 0.246564
2.065897 0 0.86188 0.211905 0.085642003
2.465275 -0.091577001 0.86188 0.282583 0.128499
1.666519 -0.091577001 0.86187899 0.282323 0.042886
2.4652741 0.091577001 0.86188 0.123928 0.52427101
1.666519 0.091577001 0.86188 0.123668 0.60988301
2.8646531 -0.045788001 0.86188 0.58743 0.0098959999
2.8646519 0.045788001 0.86188 0.58749002 0.029526001
1.267141 -0.045788001 0.86187899 0.20193399 0.171225
1.267141 0.045788001 0.86187899 0.221356 0.171285
2.065897 0.045788001 0.86188 0.221616 0.085672997
2.465275 0 0.886154 0.212035 0.042835999
2.065897 -0.045788001 0.86188 0.20219401 0.085611999
1.666519 0 0.87584299 0.211775 0.12844899
2.465275 0.045788001 0.886154 0.221746 0.042865999
2.465275 -0.045788001 0.886154 0.202324 0.042806
1.666519 0.045788001 0.87584299 0.221486 0.128479
1.666519 -0.045788001 0.87584299 0.20206399 0.128418
5.1511369 0.001084 -0.89953399 0.17727201 0.480995
5.1511369 -0.001084 -0.89953399 0.48587301 0.00054899999
5.1511369 0.001084 0.77094603 0.000128 0.481545
5.1511369 -0.001084 0.77094603 0.30872899 0
0.66349101 0.001084 0.77094603 0.53120899 5.5e-005
0.66349101 -0.001084 0.77094603 0.30860099 0.39089501
0.66349202 0.001084 -0.89953399 0.17581201 0
0.66349202 -0.001084 -0.89953399 0.484413 0.481545
5.1070161 0.32265201 -0.89953399 0.12301 0.69629002
5.1070161 -0.32265201 -0.89953399 0.154915 0.67819899
5.1070142 0.32265201 0.77094698 0.123553 0.87533498
5.1070142 -0.32265201 0.77094698 0.15437201 0.85724401
0.76896101 0.32265201 0.77094603 0.377345 0.69647002
0.76896101 -0.32265201 0.77094603 0.931256 0.481309
0.76896101 0.32265201 -0.89953399 0.376802 0.87551498
0.76896101 -0.32265201 -0.89953399 0.93179899 0.66035402
5.0804701 0.001084 0.74464101 0.0028939999 0.47396201
5.0804701 -0.001084 0.74464101 0.31149599 0.0075830002
0.73415899 0.001084 0.74464101 0.53402102 0.0076210001
0.73415899 -0.001084 0.74464101 0.311414 0.383329
5.0804701 0.001084 -0.87322903 0.174459 0.47343001
5.0804701 -0.001084 -0.87322903 0.48306099 0.0081150001
0.73416001 0.001084 -0.87322903 0.17304499 0.0075830002
0.73416001 -0.001084 -0.87322903 0.48164701 0.47396201
0.73415899 0 0.74464101 0.488561 1e-006
5.0804701 0 0.74464101 0.00075599999 0.173407
5.0804701 -0 -0.87322903 0.00023000001 1e-006
0.73416001 -0 -0.87322903 0.30883101 0.21457499
5.1511369 0.001084 0.60389799 0.017842 0.48148999
5.1511369 -0.001084 0.60389799 0.32644299 5.5e-005
0.66349101 0.001084 0.60389799 0.54892302 0
0.66349101 -0.001084 0.60389799 0.326316 0.39094999
5.1511359 0.32265201 0.603899 0.123499 0.85743099
5.1511359 -0.32265201 0.603899 0.15442599 0.83933997
0.66349101 0.32265201 0.60389799 0.37729099 0.71440601
0.66349101 -0.32265201 0.60389799 0.93131 0.49924499
5.0804701 0.001084 0.58285397 0.020051001 0.47390801
5.0804701 -0.001084 0.58285397 0.32865199 0.0076359999
0.73415899 0.001084 0.58285397 0.55117798 0.0075670001
0.73415899 -0.001084 0.58285397 0.32857001 0.38338199
5.0804701 0 0.58285397 0.00070400001 0.156067
0.73415899 0 0.58285397 0.48861301 0.017340999
5.1511369 0.001084 -0.59884799 0.145386 0.481094
5.1511369 -0.001084 -0.59884799 0.453987 0.00044999999
0.66349202 0.001084 -0.59884799 0.14392599 9.8999997e-005
0.66349202 -0.001084 -0.59884799 0.45252699 0.481446
5.1511369 0.32265201 -0.59884697 0.123108 0.72851801
5.1511369 -0.32265201 -0.59884697 0.154817 0.71042699
0.66349101 0.32265201 -0.59884799 0.37689999 0.84331799
0.66349101 -0.32265201 -0.59884799 0.93170202 0.62815702
5.0804701 0.001084 -0.582012 0.14357799 0.47352499
5.0804701 -0.001084 -0.582012 0.45217901 0.0080190003
0.73415899 0.001084 -0.582012 0.14216401 0.007679
0.73415899 -0.001084 -0.582012 0.45076501 0.47386599
5.0804701 -0 -0.582012 0.000325 0.031214001
0.73415899 -0 -0.582012 0.30892599 0.18336201
5.1511359 0.20367201 0.77094698 0.098319001 0.87541401
5.1511359 -0.20367201 0.77094698 0.17960601 0.85732198
5.1511369 0.20367201 -0.89953399 0.097776003 0.69636798
5.1511369 -0.20367201 -0.89953399 0.180149 0.67827702
0.66349101 0.20367201 0.77094603 0.35211101 0.69642299
0.66349101 -0.20367201 0.77094603 0.95648998 0.481262
0.66349101 0.20367201 -0.89953399 0.35156801 0.87546802
0.66349101 -0.20367201 -0.89953399 0.95703399 0.66030699
5.1511369 0.20367201 0.603899 0.098265 0.85750902
5.1511369 -0.20367201 0.603899 0.17966001 0.83941799
0.66349101 0.20367201 0.60389799 0.35205701 0.71432799
0.66349101 -0.20367201 0.60389799 0.956545 0.49916601
5.1511369 0.20367201 -0.59884697 0.097874001 0.72859597
5.1511369 -0.20367201 -0.59884697 0.180052 0.71050501
0.66349101 0.20367201 -0.59884799 0.35166499 0.84324002
0.66349101 -0.20367201 -0.59884799 0.956936 0.628079
1.224447 0.001084 0.77094603 0.53139102 0.060178999
1.224447 -0.001084 0.77094603 0.30878401 0.33076999
1.224447 0.001084 -0.89953399 0.17599399 0.060123999
1.224447 -0.001084 -0.89953399 0.48459601 0.42142001
1.224447 0.32265201 0.77094603 0.61355698 0.420816
1.224447 -0.32265201 0.77094603 0.61355698 0.54196602
1.224447 0.32265201 -0.89953399 0.79070097 0.42136499
1.224447 -0.32265201 -0.89953399 0.79070097 0.54141599
1.156081 0.001084 0.74464101 0.534159 0.052843001
1.156081 -0.001084 0.74464101 0.311551 0.33810699
1.2774481 0.001084 -0.87322903 0.17322201 0.065814003
1.2774481 -0.001084 -0.87322903 0.481823 0.41573101
1.174033 0 0.74464101 0.308974 0.267156
1.2774481 -0 -0.87322903 0.49533799 0.058231998
1.224447 0.32265201 0.60389799 0.631271 0.42087099
1.224447 -0.32265201 0.60389799 0.631271 0.54191101
1.224447 0.32265201 -0.59884799 0.75881499 0.42126599
1.224447 -0.32265201 -0.59884799 0.75881499 0.54151499
1.224447 0.107242 0.77094603 0.88430703 0.420941
1.224447 -0.107242 0.77094603 0.83891302 0.90206897
1.224447 0.20367201 -0.89953399 0.90475899 0.54125297
1.224447 -0.20367201 -0.89953399 0.818461 0.060123999
4.7584691 0.001084 0.77094603 0 0.439457
4.7584691 -0.001084 0.77094603 0.30860099 0.042087
4.7584691 0.001084 -0.89953399 0.17714401 0.43890801
4.7584691 -0.001084 -0.89953399 0.48574501 0.042636
4.7584682 0.32265201 0.77094698 0.61470598 0.042032
4.7584682 -0.32265201 0.77094698 0.61470598 0.92074901
4.7584691 0.32265201 -0.89953399 0.79184997 0.042580999
4.7584691 -0.32265201 -0.89953399 0.79184997 0.92019999
4.7864079 0.001084 0.74464101 0.0027989999 0.44244301
4.7864079 -0.001084 0.74464101 0.3114 0.039101001
4.7001681 0.001084 -0.87322903 0.174336 0.432668
4.7001681 -0.001084 -0.87322903 0.48293701 0.048877001
4.8140912 0 0.74464101 0.48795599 0.028551999
4.7001681 -0 -0.87322903 0.496452 0.42508599
4.7584682 0.32265201 0.603899 0.63242102 0.042087
4.7584682 -0.32265201 0.603899 0.63242102 0.92069399
4.7584691 0.32265201 -0.59884697 0.75996399 0.042482
4.7584691 -0.32265201 -0.59884697 0.75996399 0.92029899
4.7584682 0.107242 0.77094698 0.88545698 0.042157002
4.7584682 -0.107242 0.77094698 0.83776301 0.52328598
4.7584691 0.20367201 -0.89953399 0.90590799 0.92003697
4.7584691 -0.20367201 -0.89953399 0.81731099 0.43890801
1.187229 0.001084 0.71457499 0.53735697 0.056171998
1.187229 -0.001084 0.71457499 0.31474999 0.33477801
1.224447 0.001084 0.74088001 0.53457999 0.060169
1.224447 -0.001084 0.74088001 0.31197199 0.33078
1.160838 0 0.71457499 0.48914099 0.0073779998
4.7584682 0.107242 0.74088103 0.030920001 0.378784
4.7584682 -0.107242 0.74088103 0.057502002 9.9999997e-006
1.224447 0.107242 0.74088001 0.35202801 0.15899999
1.224447 -0.107242 0.74088001 0.372044 0.136244
4.7584691 0.001084 0.74088103 0.0031880001 0.439448
4.7584691 -0.001084 0.74088103 0.31178999 0.042096999
4.7704382 0.001084 0.71457499 0.0059819999 0.44072199
4.7704382 -0.001084 0.71457499 0.314583 0.040823001
4.7473698 0 0.71457499 0.0059739999 0.43824899
4.7584682 0 0.74088103 0.0031880001 0.43944699
1.224447 0 0.74088001 0.48914501 0
1 -0.2 -0.57949102 0.123553 0.69590902
1 -0.2 0.57949102 0.00065100001 0.69629002
-1 -0.2 0.57949102 0.30897799 0.87551498
-1 -0.2 -0.57949102 0.30860099 0.99973702
1 0.2 -0.57949001 0.43215501 0.48192599
0.99999899 0.2 0.57949102 0.30925199 0.481545
-1 0.2 0.57949102 0.39381301 0.87577802
-1 0.2 -0.57949102 0.39343601 1
-1 -0.17547201 -0.508421 0.31382701 0.992136
-1 0.17547201 -0.508421 0.388257 0.99236602
-1 -0.17547201 0.508421 0.31415701 0.88314903
-1 0.17547201 0.508421 0.38858801 0.88338
0 -0.2 0.57949102 0.000325 0.58910799
1 -0.2 0 0.062102001 0.69609898
0 -0.2 -0.57949102 0.123228 0.588727
-1 -0.2 -0 0.30879 0.937626
1 0.2 0 0.37070301 0.48173499
-0 0.2 0.57949102 0.308927 0.588727
-1 0.2 -0 0.39362499 0.93788898
0 0.2 -0.57949102 0.43182901 0.58910799
0 -0.2 -0 0.061776999 0.58891702
-0 0.2 0 0.37037799 0.58891702
0.5 -0.2 0.57949102 0.00048799999 0.642699
-0.5 -0.2 0.57949102 0.000163 0.53551698
1 -0.2 -0.289745 0.092827998 0.69600397
1 -0.2 0.289745 0.031376 0.69619501
0.5 -0.2 -0.57949102 0.123391 0.64231801
-0.5 -0.2 -0.57949102 0.123065 0.53513598
-1 -0.2 0.289745 0.030726001 0.48183
-1 -0.2 -0.28974599 0.092177004 0.48164001
1 0.2 -0.289745 0.401429 0.48183
1 0.2 0.28974599 0.33997801 0.48164001
0.49999899 0.2 0.57949102 0.309089 0.53513598
-0.5 0.2 0.57949102 0.30876401 0.64231801
-1 0.2 0.289745 0.33932701 0.69600397
-1 0.2 -0.289745 0.400778 0.69619501
0.5 0.2 -0.57949102 0.43199199 0.53551698
-0.5 0.2 -0.57949102 0.431667 0.642699
0 -0.2 0.289745 0.031051001 0.58901203
0.5 -0.2 -0 0.061939001 0.64250797
0 -0.2 -0.289745 0.092501998 0.58882201
-0.5 -0.2 -0 0.061613999 0.535326
-0.5 0.2 -0 0.370215 0.64250797
0 0.2 -0.289745 0.401104 0.58901203
0.5 0.2 0 0.37054101 0.535326
-0 0.2 0.289745 0.339652 0.58882201
0.5 -0.2 0.289745 0.031214001 0.64260298
0.5 -0.2 -0.289745 0.092665002 0.64241302
-0.5 -0.2 0.289745 0.030888001 0.53542101
-0.5 -0.2 -0.28974599 0.09234 0.53523099
-0.5 0.2 -0.289745 0.40094101 0.64260298
0.5 0.2 -0.289745 0.40126601 0.53542101
-0.5 0.2 0.289745 0.33949 0.64241302
0.5 0.2 0.28974599 0.33981499 0.53523099
0.25 -0.2 0.57949102 0.00040700001 0.61590302
0.75 -0.2 0.57949102 0.00056900003 0.66949397
-0.25 -0.2 0.57949102 0.000244 0.56231201
-0.75 -0.2 0.57949102 8.0999998e-005 0.50872099
1 -0.2 -0.14487299 0.077464998 0.69605201
1 -0.2 -0.434618 0.108191 0.69595599
1 -0.2 0.14487299 0.046739001 0.69614702
1 -0.2 0.434618 0.016014 0.69624197
0.25 -0.2 -0.57949102 0.123309 0.61552203
0.75 -0.2 -0.57949102 0.123472 0.66911298
-0.25 -0.2 -0.57949102 0.123147 0.56193101
-0.75 -0.2 -0.57949102 0.122984 0.50834
-1 -0.2 0.14487299 0.046089001 0.481783
-1 -0.2 0.434618 0.015363 0.48187801
-1 -0.2 -0.14487299 0.076814003 0.48168701
-1 -0.2 -0.434618 0.10754 0.481592
1 0.2 -0.14487199 0.38606599 0.481783
1 0.2 -0.434618 0.41679201 0.48187801
1 0.2 0.14487299 0.35534099 0.48168701
1 0.2 0.434618 0.324615 0.481592
0.249999 0.2 0.57949102 0.309008 0.56193101
0.74999899 0.2 0.57949102 0.30917099 0.50834
-0.25 0.2 0.57949102 0.30884501 0.61552203
-0.75 0.2 0.57949102 0.30868301 0.66911298
-1 0.2 0.14487299 0.35468999 0.69605201
-1 0.2 0.434618 0.323964 0.69595599
-1 0.2 -0.14487299 0.385416 0.69614702
-1 0.2 -0.434618 0.416141 0.69624197
0.25 0.2 -0.57949102 0.43191099 0.56231201
0.75 0.2 -0.57949001 0.432073 0.50872099
-0.25 0.2 -0.57949102 0.431748 0.61590302
-0.75 0.2 -0.57949102 0.43158501 0.66949397
0 -0.2 0.434618 0.015688 0.58906001
0 -0.2 0.14487299 0.046413999 0.588965
0.75 -0.2 0 0.062020998 0.66930401
0.25 -0.2 -0 0.061857998 0.615713
0 -0.2 -0.434618 0.107865 0.58877403
0 -0.2 -0.14487299 0.077140003 0.58886999
-0.75 -0.2 -0 0.061533 0.50853097
-0.25 -0.2 -0 0.061694998 0.56212199
-0.75 0.2 -0 0.370134 0.66930401
-0.25 0.2 0 0.37029701 0.615713
0 0.2 -0.434618 0.41646701 0.58906001
0 0.2 -0.14487299 0.385741 0.588965
0.75 0.2 0 0.37062201 0.50853097
0.25 0.2 0 0.37045899 0.56212199
-0 0.2 0.434618 0.32429001 0.58877403
-0 0.2 0.14487299 0.35501501 0.58886999
0.5 -0.2 0.434618 0.015851 0.64265102
0.75 -0.2 0.289745 0.031295002 0.66939902
0.5 -0.2 0.14487299 0.046576999 0.64255601
0.25 -0.2 0.289745 0.031132 0.61580801
0.5 -0.2 -0.14487299 0.077302001 0.642461
0.75 -0.2 -0.289745 0.092745997 0.66920799
0.5 -0.2 -0.434618 0.108028 0.64236498
0.25 -0.2 -0.289745 0.092583999 0.61561698
-0.5 -0.2 0.434618 0.015525 0.535469
-0.25 -0.2 0.289745 0.03097 0.562217
-0.5 -0.2 0.14487299 0.046250999 0.53537399
-0.75 -0.2 0.289745 0.030807 0.50862598
-0.5 -0.2 -0.14487299 0.076977 0.53527802
-0.25 -0.2 -0.289745 0.092421003 0.56202602
-0.5 -0.2 -0.434618 0.107703 0.53518301
-0.75 -0.2 -0.28974599 0.092257999 0.50843501
-0.75 0.2 -0.289745 0.40086001 0.66939902
-0.5 0.2 -0.434618 0.41630399 0.64265102
-0.25 0.2 -0.289745 0.40102199 0.61580801
-0.5 0.2 -0.14487299 0.38557801 0.64255601
0.25 0.2 -0.289745 0.40118501 0.562217
0.5 0.2 -0.434618 0.41662899 0.535469
0.75 0.2 -0.289745 0.40134799 0.50862598
0.5 0.2 -0.14487199 0.38590401 0.53537399
-0.75 0.2 0.289745 0.33940801 0.66920799
-0.5 0.2 0.14487299 0.354853 0.642461
-0.25 0.2 0.289745 0.339571 0.61561698
-0.5 0.2 0.434618 0.32412699 0.64236498
0.25 0.2 0.28974599 0.33973399 0.56202602
0.5 0.2 0.14487299 0.355178 0.53527802
0.75 0.2 0.28974599 0.33989599 0.50843501
0.5 0.2 0.434618 0.32445201 0.53518301
0.75 -0.2 0.434618 0.015931999 0.669447
0.75 -0.2 0.14487299 0.046658002 0.66935098
0.25 -0.2 0.434618 0.015769999 0.61585599
0.25 -0.2 0.14487299 0.046495002 0.61576003
0.75 -0.2 -0.14487299 0.077384003 0.66925597
0.75 -0.2 -0.434618 0.108109 0.66916102
0.25 -0.2 -0.14487299 0.077220999 0.61566502
0.25 -0.2 -0.434618 0.107947 0.61557001
-0.25 -0.2 0.434618 0.015607 0.56226498
-0.25 -0.2 0.14487299 0.046333 0.56216902
-0.75 -0.2 0.434618 0.015444 0.50867301
-0.75 -0.2 0.14487299 0.04617 0.508578
-0.25 -0.2 -0.14487299 0.077058002 0.56207401
-0.25 -0.2 -0.434618 0.107784 0.561979
-0.75 -0.2 -0.14487299 0.076895997 0.50848299
-0.75 -0.2 -0.434618 0.107621 0.50838798
-0.75 0.2 -0.434618 0.41622299 0.669447
-0.25 0.2 -0.434618 0.41638499 0.61585599
-0.75 0.2 -0.14487299 0.385497 0.66935098
-0.25 0.2 -0.14487299 0.38565999 0.61576003
0.25 0.2 -0.434618 0.41654801 0.56226498
0.75 0.2 -0.434618 0.416711 0.50867301
0.25 0.2 -0.14487299 0.385822 0.56216902
0.75 0.2 -0.14487199 0.38598499 0.508578
-0.75 0.2 0.14487299 0.35477099 0.66925597
-0.25 0.2 0.14487299 0.35493401 0.61566502
-0.75 0.2 0.434618 0.32404599 0.66916102
-0.25 0.2 0.434618 0.32420799 0.61557001
0.25 0.2 0.14487299 0.355097 0.56207401
0.75 0.2 0.14487299 0.355259 0.50848299
0.25 0.2 0.434618 0.32437101 0.561979
0.75 0.2 0.434618 0.32453299 0.50838798
0.91570199 -0.173485 -0.54819697 0.30860099 0.67783803
0.91570199 -0.173485 0.54819697 0.19233599 0.67819899
-0.91570199 -0.173485 0.54819697 0.19174001 0.48190501
-0.91570097 -0.173485 -0.54819697 0.30800599 0.481545
0.91570199 -0.023484999 -0.54819697 0.549016 0.48190501
0.91570097 -0.023484999 0.54819798 0.432751 0.481545
-0.91570199 -0.023484999 0.54819697 0.43215501 0.67783803
-0.91570199 -0.023484999 -0.54819697 0.54842103 0.67819899
1.2671421 -0.091577001 0.61774498 0.30808201 0
2.8646531 -0.091577001 0.617746 0.30860099 0.171225
2.8646531 0.091577001 0.617746 0.149947 0.481545
1.267141 0.091577001 0.617746 0.149427 0.65276903
2.8646531 -0.091577001 0.617746 0.613289 0
2.8646531 0.091577001 0.617746 0.61340898 0.039262
1.267141 0.091577001 0.617746 0.30872101 0.26627499
1.2671421 -0.091577001 0.61774498 0.30860099 0.22701301
2.806746 0.091577001 0.86188 0.58752 0.039342001
2.806746 -0.091577001 0.86188 0.58740002 7.9999998e-005
2.8646519 0.045788001 0.86188 0.221876 5.9999998e-005
2.806746 0.091577001 0.86188 0.23156799 0.0062970002
2.4652741 0.091577001 0.86188 0.231457 0.042897001
2.8646531 0 0.86188 0.212165 2.9999999e-005
2.065897 0.091577001 0.86188 0.231327 0.085703
2.8646531 -0.045788001 0.86188 0.202454 0
2.806746 -0.091577001 0.86188 0.192724 0.006176
2.465275 -0.091577001 0.86188 0.19261301 0.042776
2.065897 -0.091577001 0.86188 0.19248299 0.085582003
1.666519 0.091577001 0.86188 0.231197 0.128509
1.313904 0.091577001 0.86187899 0.23108301 0.16630299
1.267141 0 0.86187899 0.21164501 0.17125501
1.666519 -0.091577001 0.86187899 0.192353 0.128388
1.313904 -0.091577001 0.86187899 0.192238 0.166182
1.313904 -0.091577001 0.86187899 0.33450401 0.226933
1.267141 -0.045788001 0.86187899 0.33452001 0.236748
1.267141 0.045788001 0.86187899 0.33458 0.25637901
1.313904 0.091577001 0.86187899 0.33462301 0.26619399
5.0804701 0.001084 0.58285397 0.00093400001 0.156066
5.0804701 0.001084 0.74464101 0.00098600006 0.173407
5.0804701 -0.001084 0.74464101 0.00052599999 0.173408
5.0804701 -0.001084 0.58285397 0.000474 0.156067
0.73415899 0.001084 0.74464101 0.48879099 0
0.73415899 0.001084 0.58285397 0.48884299 0.017340999
0.73415899 -0.001084 0.58285397 0.48838401 0.017341999
0.73415899 -0.001084 0.74464101 0.48833099 1e-006
5.0804701 0.001084 -0.87322903 0.00046000001 0
5.0804701 0.001084 -0.582012 0.00055499998 0.031213
5.0804701 -0.001084 -0.582012 9.5000003e-005 0.031215001
5.0804701 -0.001084 -0.87322903 0 1e-006
0.73415899 0.001084 -0.582012 0.309156 0.18336301
0.73416001 0.001084 -0.87322903 0.30906099 0.21457601
0.73416001 -0.001084 -0.87322903 0.30860099 0.21457499
0.73415899 -0.001084 -0.582012 0.308696 0.18336099
5.1511369 0.001084 0.77094603 0.055353001 0.87554699
5.1511369 0.001084 0.60389799 0.055298999 0.85764199
5.1511369 -0.001084 0.60389799 0.222627 0.83955097
5.1511369 -0.001084 0.77094603 0.222572 0.85745603
0.66349101 0.001084 0.60389799 0.30908999 0.714194
0.66349101 0.001084 0.77094603 0.309145 0.69629002
0.66349101 -0.001084 0.77094603 0.999457 0.48112899
0.66349101 -0.001084 0.60389799 0.999511 0.499033
5.1511369 0.001084 -0.89953399 0.054809 0.69650102
5.1511369 0.001084 -0.59884799 0.054907002 0.72872901
5.1511369 -0.001084 -0.89953399 0.223116 0.67840999
5.1511369 -0.001084 -0.59884799 0.22301801 0.71063799
0.66349202 0.001084 -0.89953399 0.30860099 0.87533498
0.66349202 0.001084 -0.59884799 0.30869901 0.84310699
0.66349202 -0.001084 -0.59884799 0.99990201 0.62794501
0.66349202 -0.001084 -0.89953399 1 0.66017401
1.156081 0.001084 0.74464101 0.30919799 0.269081
0.73415899 0.001084 0.74464101 0.30906099 0.31430301
0.73415899 0 0.74464101 0.30883101 0.314302
0.73415899 -0.001084 0.74464101 0.30860099 0.314302
1.156081 -0.001084 0.74464101 0.30873901 0.269079
0.73416001 0.001084 -0.87322903 0.49539101 0
1.2774481 0.001084 -0.87322903 0.49556801 0.058231
0.73416001 -0 -0.87322903 0.495161 1e-006
1.2774481 -0.001084 -0.87322903 0.49510801 0.058231998
0.73416001 -0.001084 -0.87322903 0.49493101 1e-006
0.76896101 0.32265201 0.77094603 0.61340803 0.46963599
0.66349101 0.32265201 0.60389799 0.63108897 0.480995
0.76896101 -0.32265201 0.77094603 0.61340803 0.493146
0.66349101 -0.32265201 0.60389799 0.63108897 0.48178601
0.66349101 0.32265201 -0.59884799 0.758632 0.48139101
0.76896101 0.32265201 -0.89953399 0.79055202 0.47018501
0.66349101 -0.32265201 -0.59884799 0.758632 0.48139101
0.76896101 -0.32265201 -0.89953399 0.79055202 0.492596
0.66349101 0.20367201 0.77094603 0.904576 0.48112899
0.66349101 0.001084 0.77094603 0.86161 0.480995
1.224447 0.001084 0.77094603 0.86179203 0.42087099
0.66349101 -0.001084 0.77094603 0.86161 0.96212399
0.66349101 -0.20367201 0.77094603 0.81864399 0.96225703
1.224447 -0.001084 0.77094603 0.86142701 0.901999
1.224447 0.32265201 0.77094603 0.92999297 0.42108199
0.76896101 0.32265201 0.77094603 0.92984498 0.46990201
0.76896101 -0.32265201 0.77094603 0.79337502 0.95103103
1.224447 -0.32265201 0.77094603 0.79322702 0.90221101
0.66349101 0.20367201 -0.89953399 0.904576 0.48112899
0.76896101 0.32265201 -0.89953399 0.92984498 0.49235499
1.224447 0.32265201 -0.89953399 0.92999297 0.54117501
0.76896101 -0.32265201 -0.89953399 0.79337502 0.011226
0.66349101 -0.20367201 -0.89953399 0.81864399 0
1.224447 -0.32265201 -0.89953399 0.79322702 0.060045999
1.224447 0.001084 -0.89953399 0.86179203 0.54138601
0.66349202 0.001084 -0.89953399 0.86161 0.481262
0.66349202 -0.001084 -0.89953399 0.86161 0.00013299999
1.224447 -0.001084 -0.89953399 0.86142701 0.060258001
5.0804701 0.001084 0.74464101 0.48809901 0
4.7864079 0.001084 0.74464101 0.488195 0.031518001
5.0804701 0 0.74464101 0.48786899 1e-006
4.7864079 -0.001084 0.74464101 0.487735 0.031518999
5.0804701 -0.001084 0.74464101 0.48763901 1e-006
4.7001681 0.001084 -0.87322903 0.496681 0.42508501
4.7001681 -0.001084 -0.87322903 0.49622199 0.42508599
5.0804701 0.001084 -0.87322903 0.49680501 0.46584699
5.0804701 -0 -0.87322903 0.496575 0.46584699
5.0804701 -0.001084 -0.87322903 0.49634501 0.465848
5.1070142 0.32265201 0.77094698 0.61482 0.0046740002
5.1511359 0.32265201 0.603899 0.63254797 0
5.1511359 -0.32265201 0.603899 0.63254797 0.96278101
5.1070142 -0.32265201 0.77094698 0.61482 0.95810699
5.1511369 0.32265201 -0.59884697 0.76009202 0.00039500001
5.1070161 0.32265201 -0.89953399 0.79196399 0.005223
5.1070161 -0.32265201 -0.89953399 0.79196399 0.95755798
5.1511369 -0.32265201 -0.59884697 0.76009202 0.96238601
5.1511359 0.20367201 0.77094698 0.90603602 0.00013299999
4.7584691 0.001084 0.77094603 0.86294198 0.042087
5.1511369 0.001084 0.77094603 0.86307001 0
4.7584691 -0.001084 0.77094603 0.86027801 0.52321601
5.1511359 -0.20367201 0.77094698 0.81718397 0.481262
5.1511369 -0.001084 0.77094603 0.86014998 0.48112899
5.1070142 0.32265201 0.77094698 0.931256 0.0049410001
4.7584682 0.32265201 0.77094698 0.93114299 0.042298999
4.7584682 -0.32265201 0.77094698 0.792077 0.52342701
5.1070142 -0.32265201 0.77094698 0.79196399 0.48606899
5.1511369 0.20367201 -0.89953399 0.90603602 0.96212399
4.7584691 0.32265201 -0.89953399 0.93114299 0.91995901
5.1070161 0.32265201 -0.89953399 0.931256 0.95731699
4.7584691 -0.32265201 -0.89953399 0.792077 0.43882999
5.1511369 -0.20367201 -0.89953399 0.81718397 0.480995
5.1070161 -0.32265201 -0.89953399 0.79196399 0.476188
5.1511369 0.001084 -0.89953399 0.86307001 0.96225703
4.7584691 0.001084 -0.89953399 0.86294198 0.92017001
4.7584691 -0.001084 -0.89953399 0.86027801 0.43904099
5.1511369 -0.001084 -0.89953399 0.86014998 0.48112899
1.224447 0.107242 0.77094603 0.34884 0.15900999
1.224447 0.001084 0.77094603 0.34877101 0.136254
1.224447 0.001084 0.74088001 0.35195899 0.136244
1.224447 -0.001084 0.74088001 0.372114 0.15899999
1.224447 -0.001084 0.77094603 0.36892501 0.15900999
1.224447 -0.107242 0.77094603 0.36885601 0.136254
4.7584682 0.107242 0.77094698 0.027732 0.37879401
1.224447 0.107242 0.77094603 0.026582001 9.9999997e-006
1.224447 0.107242 0.74088001 0.02977 0
1.224447 -0.107242 0.74088001 0.056352999 0.37879401
1.224447 -0.107242 0.77094603 0.053164002 0.378784
4.7584682 -0.107242 0.77094698 0.054313999 0
4.7584691 0.001084 0.77094603 0.328686 0.15899999
4.7584682 0.107242 0.77094698 0.32875499 0.136244
4.7584682 0.107242 0.74088103 0.33194301 0.136254
4.7584691 0.001084 0.74088103 0.33187401 0.15900999
4.7584682 -0.107242 0.74088103 0.30860099 0.136254
4.7584682 -0.107242 0.77094698 0.31178999 0.136244
4.7584691 -0.001084 0.77094603 0.31185901 0.15899999
4.7584691 -0.001084 0.74088103 0.30867001 0.15900999
1.224447 0.001084 0.74088001 0.48914501 0
1.187229 0.001084 0.71457499 0.49021199 0.004764
1.160838 0 0.71457499 0.30860099 0.045632999
1.187229 -0.001084 0.71457499 0.309672 0.048246
1.224447 -0.001084 0.74088001 0.308606 0.053011
1.224447 0 0.74088001 0.308606 0.053011
4.7584682 0 0.74088103 0.31178999 0.042096999
4.7473698 0 0.71457499 0.314576 0.043295
4.7584691 0.001084 0.74088103 0.57199103 0.48161399
4.7584682 0.107242 0.74088103 0.59450603 0.481545
4.7584682 0 0.74088103 0.57176101 0.48161501
4.7584682 -0.107242 0.74088103 0.549016 0.481686
4.7584691 -0.001084 0.74088103 0.571531 0.48161599
1.224447 0.107242 0.74088001 0.59565502 0.86032802
1.224447 0 0.74088001 0.57291102 0.86039901
1.224447 -0.107242 0.74088001 0.55016601 0.86046898
-1 -0.2 0.57949102 0 0.48192599
-1 -0.2 -0 0.061450999 0.48173499
-1 -0.2 -0.57949102 0.122903 0.481545
-1 0.2 -0.57949102 0.43150401 0.69629002
-1 0.2 -0 0.37005299 0.69609898
-1 0.2 0.57949102 0.30860099 0.69590902
1 -0.2 -0.434618 0.137951 0.87324601
1 -0.2 -0.57949102 0.137904 0.857719
1 0.2 -0.57949001 0.222739 0.85745603
1 0.2 -0.434618 0.22278599 0.87298298
1 0.2 -0.289745 0.22283299 0.888511
1 -0.2 -0.289745 0.137998 0.88877398
1 0.2 -0.14487199 0.22288001 0.90403903
1 -0.2 -0.14487299 0.138045 0.904302
1 0.2 0 0.222927 0.91956699
1 -0.2 0 0.138092 0.91983002
1 0.2 0.14487299 0.222974 0.935094
1 -0.2 0.14487299 0.13813899 0.93535697
1 0.2 0.28974599 0.223021 0.95062202
1 -0.2 0.289745 0.13818599 0.950885
1 0.2 0.434618 0.223069 0.96614999
1 -0.2 0.434618 0.138234 0.96641302
0.99999899 0.2 0.57949102 0.223116 0.98167801
1 -0.2 0.57949102 0.138281 0.98194098
0.99999899 0.2 0.57949102 0.307951 0.67819899
0.74999899 0.2 0.57949102 0.30803201 0.70499402
0.75 -0.2 0.57949102 0.223197 0.705257
1 -0.2 0.57949102 0.223116 0.67846203
0.49999899 0.2 0.57949102 0.30811301 0.73179001
0.5 -0.2 0.57949102 0.223278 0.73205298
0.249999 0.2 0.57949102 0.30819499 0.75858498
0.25 -0.2 0.57949102 0.22336 0.75884801
-0 0.2 0.57949102 0.308276 0.78538102
0 -0.2 0.57949102 0.223441 0.78564399
-0.25 0.2 0.57949102 0.308357 0.81217599
-0.25 -0.2 0.57949102 0.22352199 0.81243902
-0.5 0.2 0.57949102 0.30843899 0.83897197
-0.5 -0.2 0.57949102 0.22360399 0.83923501
-0.75 0.2 0.57949102 0.30851999 0.865767
-0.75 -0.2 0.57949102 0.223685 0.86602998
-1 0.2 0.57949102 0.30860099 0.89256299
-1 -0.2 0.57949102 0.223766 0.89282602
1 -0.2 -0.57949102 0.43215501 0.89256299
0.75 -0.2 -0.57949102 0.43223599 0.865767
0.75 0.2 -0.57949001 0.51707101 0.86602998
1 0.2 -0.57949001 0.51699001 0.89282602
0.5 -0.2 -0.57949102 0.43231699 0.83897197
0.5 0.2 -0.57949102 0.51715201 0.83923501
0.25 -0.2 -0.57949102 0.432399 0.81217599
0.25 0.2 -0.57949102 0.51723403 0.81243902
0 -0.2 -0.57949102 0.43248001 0.78538102
0 0.2 -0.57949102 0.51731497 0.78564399
-0.25 -0.2 -0.57949102 0.43256101 0.75858498
-0.25 0.2 -0.57949102 0.51739597 0.75884801
-0.5 -0.2 -0.57949102 0.432643 0.73179001
-0.5 0.2 -0.57949102 0.51747799 0.73205298
-0.75 -0.2 -0.57949102 0.432724 0.70499402
-0.75 0.2 -0.57949102 0.51755899 0.705257
-1 -0.2 -0.57949102 0.432805 0.67819899
-1 0.2 -0.57949102 0.51763999 0.67846203
-1 0.2 0.434618 0.39376599 0.89130598
-1 0.2 0.289745 0.39371899 0.90683401
-1 0.2 0.14487299 0.39367199 0.92236203
-1 0.2 -0.14487299 0.39357799 0.953417
-1 0.2 -0.289745 0.39353099 0.96894503
-1 0.2 -0.434618 0.39348301 0.98447198
-1 -0.2 -0.434618 0.30864799 0.984209
-1 -0.2 -0.28974599 0.308696 0.96868199
-1 -0.2 -0.14487299 0.308743 0.95315403
-1 -0.2 0.14487299 0.308837 0.92209798
-1 -0.2 0.289745 0.30888399 0.90657097
-1 -0.2 0.434618 0.30893099 0.89104301
0.91570199 -0.173485 -0.54819697 0.931256 0.66045302
0.91570199 -0.023484999 -0.54819697 0.96306902 0.66035402
0.91570097 -0.023484999 0.54819798 0.96342599 0.77786797
0.91570199 -0.173485 0.54819697 0.93161303 0.77796698
0.91570199 -0.173485 0.54819697 0.022995999 0.69629002
0.91570097 -0.023484999 0.54819798 0.054809 0.69638902
-0.91570199 -0.023484999 0.54819697 0.054214001 0.89268202
-0.91570199 -0.173485 0.54819697 0.022400999 0.89258301
-0.91570199 -0.173485 0.54819697 0.93161303 0.77796698
-0.91570199 -0.023484999 0.54819697 0.96342599 0.77806503
-0.91570199 -0.023484999 -0.54819697 0.96306902 0.89557898
-0.91570097 -0.173485 -0.54819697 0.931256 0.89547998
0.91570199 -0.023484999 -0.54819697 0.431559 0.89268202
0.91570199 -0.173485 -0.54819697 0.399746 0.89258301
-0.91570097 -0.173485 -0.54819697 0.40034199 0.69629002
-0.91570199 -0.023484999 -0.54819697 0.43215501 0.69638801
3 4 0 3
3 4 3 7
3 335 336 8
3 9 337 338
3 10 339 340
3 11 341 342
3 13 336 1
3 8 336 13
3 8 14 335
3 14 2 335
3 6 16 338
3 16 9 338
3 9 15 337
3 15 5 337
3 343 18 340
3 18 10 340
3 17 339 10
3 344 339 17
3 345 346 347
3 345 347 25
3 348 345 25
3 348 25 22
3 25 347 349
3 25 349 21
3 22 25 21
3 22 21 12
3 350 348 22
3 350 22 26
3 351 350 26
3 351 26 352
3 26 22 12
3 26 12 23
3 352 26 23
3 352 23 353
3 21 349 354
3 21 354 27
3 12 21 27
3 12 27 24
3 27 354 355
3 27 355 20
3 24 27 20
3 24 20 356
3 23 12 24
3 23 24 28
3 353 23 28
3 353 28 357
3 28 24 356
3 28 356 19
3 357 28 19
3 357 19 358
3 359 360 342
3 360 11 342
3 11 361 341
3 361 362 341
3 57 31 45
3 57 45 65
3 46 32 58
3 46 58 66
3 33 59 67
3 33 67 47
3 68 60 34
3 68 34 48
3 363 364 54
3 363 54 69
3 54 365 366
3 54 366 69
3 367 368 70
3 367 70 53
3 70 369 370
3 70 370 53
3 29 71 79
3 29 79 49
3 80 72 30
3 80 30 50
3 71 57 65
3 71 65 79
3 66 58 72
3 66 72 80
3 73 35 51
3 73 51 81
3 52 36 74
3 52 74 82
3 371 372 83
3 371 83 55
3 83 373 374
3 83 374 55
3 372 363 69
3 372 69 83
3 69 366 373
3 69 373 83
3 375 376 56
3 375 56 84
3 56 377 378
3 56 378 84
3 39 85 93
3 39 93 61
3 94 86 40
3 94 40 62
3 85 379 380
3 85 380 93
3 381 382 86
3 381 86 94
3 63 95 89
3 63 89 41
3 90 96 64
3 90 64 42
3 95 383 384
3 95 384 89
3 385 386 96
3 385 96 90
3 75 97 87
3 75 87 37
3 88 98 76
3 88 76 38
3 387 87 97
3 387 97 388
3 98 88 389
3 98 389 390
3 61 93 97
3 61 97 75
3 98 94 62
3 98 62 76
3 93 380 388
3 93 388 97
3 390 381 94
3 390 94 98
3 77 99 95
3 77 95 63
3 96 100 78
3 96 78 64
3 43 91 99
3 43 99 77
3 100 92 44
3 100 44 78
3 91 391 392
3 91 392 99
3 393 394 92
3 393 92 100
3 101 33 47
3 101 47 109
3 48 34 102
3 48 102 110
3 35 103 111
3 35 111 51
3 112 104 36
3 112 36 52
3 395 396 397
3 395 397 113
3 397 398 399
3 397 399 113
3 400 401 114
3 400 114 402
3 114 403 404
3 114 404 402
3 405 105 115
3 405 115 406
3 116 106 407
3 116 407 408
3 409 117 107
3 409 107 410
3 108 118 411
3 108 411 412
3 406 115 117
3 406 117 409
3 118 116 408
3 118 408 411
3 119 413 414
3 119 414 415
3 416 417 120
3 416 120 418
3 419 420 413
3 419 413 119
3 417 421 422
3 417 422 120
3 121 423 424
3 121 424 425
3 426 427 122
3 426 122 428
3 429 430 423
3 429 423 121
3 427 431 432
3 427 432 122
3 31 123 131
3 31 131 45
3 132 124 32
3 132 32 46
3 103 125 133
3 103 133 111
3 134 126 104
3 134 104 112
3 125 29 49
3 125 49 133
3 50 30 126
3 50 126 134
3 433 434 135
3 433 135 435
3 135 436 437
3 135 437 435
3 401 438 136
3 401 136 114
3 136 439 403
3 136 403 114
3 438 440 441
3 438 441 136
3 441 442 439
3 441 439 136
3 105 127 137
3 105 137 115
3 138 128 106
3 138 106 116
3 127 443 444
3 127 444 137
3 445 446 128
3 445 128 138
3 117 139 129
3 117 129 107
3 130 140 118
3 130 118 108
3 139 447 448
3 139 448 129
3 449 450 140
3 449 140 130
3 115 137 139
3 115 139 117
3 140 138 116
3 140 116 118
3 137 444 447
3 137 447 139
3 450 445 138
3 450 138 140
3 451 141 452
3 451 452 453
3 454 142 455
3 454 455 456
3 457 458 141
3 457 141 451
3 142 459 460
3 142 460 455
3 458 419 119
3 458 119 141
3 120 422 459
3 120 459 142
3 461 143 462
3 461 462 463
3 464 144 465
3 464 465 466
3 143 121 425
3 143 425 462
3 428 122 144
3 428 144 464
3 467 468 143
3 467 143 461
3 144 469 470
3 144 470 465
3 468 429 121
3 468 121 143
3 122 432 469
3 122 469 144
3 101 109 145
3 101 145 147
3 146 110 102
3 146 102 148
3 471 472 473
3 471 473 152
3 474 475 476
3 474 476 153
3 477 478 479
3 477 479 150
3 480 481 482
3 480 482 151
3 131 123 154
3 131 154 156
3 155 124 132
3 155 132 157
3 483 484 485
3 483 485 486
3 487 488 489
3 487 489 490
3 491 492 149
3 491 149 160
3 493 494 495
3 493 495 496
3 156 154 159
3 156 159 158
3 497 155 157
3 497 157 498
3 499 500 501
3 501 502 503
3 500 504 505
3 500 505 501
3 505 506 502
3 505 502 501
3 168 164 169
3 168 169 170
3 163 167 172
3 163 172 171
3 179 170 172
3 176 171 169
3 222 162 216
3 222 216 295
3 186 222 295
3 186 295 264
3 295 216 183
3 295 183 263
3 264 295 263
3 264 263 207
3 221 186 264
3 221 264 296
3 174 221 296
3 174 296 249
3 296 264 207
3 296 207 265
3 249 296 265
3 249 265 200
3 263 183 215
3 263 215 297
3 207 263 297
3 207 297 266
3 297 215 173
3 297 173 247
3 266 297 247
3 266 247 199
3 265 207 266
3 265 266 298
3 200 265 298
3 200 298 250
3 298 266 199
3 298 199 248
3 250 298 248
3 250 248 181
3 219 174 249
3 219 249 299
3 185 219 299
3 185 299 268
3 299 249 200
3 299 200 267
3 268 299 267
3 268 267 208
3 220 185 268
3 220 268 300
3 161 220 300
3 161 300 224
3 300 268 208
3 300 208 269
3 224 300 269
3 224 269 187
3 267 200 250
3 267 250 301
3 208 267 301
3 208 301 270
3 301 250 181
3 301 181 252
3 270 301 252
3 270 252 201
3 269 208 270
3 269 270 302
3 187 269 302
3 187 302 223
3 302 270 201
3 302 201 251
3 223 302 251
3 223 251 175
3 247 173 217
3 247 217 303
3 199 247 303
3 199 303 272
3 303 217 184
3 303 184 271
3 272 303 271
3 272 271 209
3 248 199 272
3 248 272 304
3 181 248 304
3 181 304 254
3 254 304 273
3 254 273 202
3 271 184 218
3 271 218 305
3 209 271 305
3 209 305 274
3 305 218 507
3 305 507 228
3 274 305 228
3 274 228 189
3 273 209 274
3 273 274 306
3 202 273 306
3 202 306 253
3 306 274 189
3 306 189 227
3 253 306 227
3 253 227 508
3 252 181 254
3 252 254 307
3 201 252 307
3 201 307 276
3 307 254 202
3 307 202 275
3 251 201 276
3 251 276 308
3 175 251 308
3 175 308 225
3 308 276 210
3 308 210 277
3 225 308 277
3 225 277 188
3 275 202 253
3 275 253 309
3 210 275 309
3 210 309 278
3 309 253 508
3 309 508 229
3 278 309 229
3 278 229 190
3 277 210 278
3 277 278 310
3 188 277 310
3 188 310 226
3 310 278 190
3 310 190 230
3 226 310 230
3 226 230 509
3 246 510 242
3 246 242 311
3 198 246 311
3 198 311 280
3 311 242 196
3 311 196 279
3 280 311 279
3 280 279 211
3 245 198 280
3 245 280 312
3 180 245 312
3 180 312 257
3 312 280 211
3 312 211 281
3 257 312 281
3 257 281 204
3 279 196 241
3 279 241 313
3 211 279 313
3 211 313 282
3 313 241 511
3 313 511 255
3 282 313 255
3 282 255 203
3 204 281 314
3 204 314 258
3 314 282 203
3 314 203 256
3 258 314 256
3 258 256 182
3 243 180 257
3 243 257 315
3 197 243 315
3 197 315 284
3 315 257 204
3 315 204 283
3 284 315 283
3 284 283 212
3 244 197 284
3 244 284 316
3 165 244 316
3 165 316 232
3 316 284 212
3 316 212 285
3 232 316 285
3 232 285 191
3 283 204 258
3 283 258 317
3 212 283 317
3 212 317 286
3 317 258 182
3 317 182 260
3 286 317 260
3 286 260 205
3 285 212 286
3 285 286 318
3 191 285 318
3 191 318 231
3 318 286 205
3 318 205 259
3 231 318 259
3 231 259 177
3 255 511 239
3 255 239 319
3 203 255 319
3 203 319 288
3 319 239 195
3 319 195 287
3 288 319 287
3 288 287 213
3 256 203 288
3 256 288 320
3 182 256 320
3 182 320 262
3 262 320 289
3 262 289 206
3 287 195 240
3 287 240 321
3 213 287 321
3 213 321 290
3 321 240 512
3 321 512 238
3 290 321 238
3 290 238 194
3 289 213 290
3 289 290 322
3 206 289 322
3 206 322 261
3 322 290 194
3 322 194 237
3 261 322 237
3 261 237 178
3 260 182 262
3 260 262 323
3 205 260 323
3 205 323 292
3 323 262 206
3 323 206 291
3 292 323 291
3 292 291 214
3 259 205 292
3 259 292 324
3 177 259 324
3 177 324 233
3 324 292 214
3 324 214 293
3 233 324 293
3 233 293 192
3 291 206 261
3 291 261 325
3 214 291 325
3 214 325 294
3 325 261 178
3 325 178 235
3 294 325 235
3 294 235 193
3 293 214 294
3 293 294 326
3 192 293 326
3 192 326 234
3 326 294 193
3 326 193 236
3 234 326 236
3 234 236 166
3 513 514 515
3 513 515 516
3 516 517 518
3 516 518 513
3 517 519 520
3 517 520 518
3 519 521 522
3 519 522 520
3 521 523 524
3 521 524 522
3 523 525 526
3 523 526 524
3 525 527 528
3 525 528 526
3 527 529 530
3 527 530 528
3 531 532 533
3 531 533 534
3 532 535 536
3 532 536 533
3 535 537 538
3 535 538 536
3 537 539 540
3 537 540 538
3 539 541 542
3 539 542 540
3 541 543 544
3 541 544 542
3 543 545 546
3 543 546 544
3 545 547 548
3 545 548 546
3 549 550 551
3 549 551 552
3 550 553 554
3 550 554 551
3 553 555 556
3 553 556 554
3 555 557 558
3 555 558 556
3 557 559 560
3 557 560 558
3 559 561 562
3 559 562 560
3 561 563 564
3 561 564 562
3 563 565 566
3 563 566 564
3 167 567 172
3 567 568 172
3 568 569 172
3 569 179 172
3 179 570 170
3 570 571 170
3 571 572 170
3 572 168 170
3 164 573 169
3 573 574 169
3 574 575 169
3 575 176 169
3 176 576 171
3 576 577 171
3 577 578 171
3 578 163 171
3 327 328 329
3 327 329 330
3 331 334 333
3 331 333 332
3 579 580 581
3 579 581 582
3 583 584 585
3 583 585 586
3 587 588 589
3 587 589 590
3 591 592 593
3 591 593 594
