# OBJ File produced by MEPP2
# The M2Disco Framework
#
# Mesh with :
# 	148 vertex positions
# 	292 faces
# 	0 UV coordinates
# 	148 vertex normals

v 0.649577 0.0641561 7.88049e-05 0 0 0.625 
v 0.456753 0.301981 7.88049e-05 0 0 0.625 
v 0.328326 -0.25234 7.88049e-05 0 0.5 1 
v -0.521368 0.281276 7.88049e-05 0 0 0.5625 
v -0.441305 -0.286513 7.88049e-05 0 0 0.5156 
v -0.31349 -0.295875 7.88049e-05 0 0 0.5156 
v -0.546877 0.0334392 7.88049e-05 0 0 0.5625 
v 0.974899 0.195405 0.000258076 0 0 0.625 
v 0.659 0.396463 -8.23944e-05 0 0 0.5938 
v 0.577639 0.31468 -0.0506924 0 0 0.625 
v 0.605075 0.232401 -0.0764618 0 0.6719 1 
v 0.51483 0.259467 -0.0541123 0 0.8281 1 
v 0.558549 0.0247833 -0.0659179 0 0.2031 1 
v 0.406677 -0.126099 -0.134431 0 0 0.875 
v 0.377728 -0.160438 -0.137905 0 0 0.7188 
v 0.387819 -0.141108 -0.141034 0 0 0.7188 
v 0.137306 0.234689 -0.073773 0 0 0.5781 
v 0.107949 -0.0317826 -0.219072 1 1 0.0156 
v -0.00958156 0.2071 -0.111878 0.8281 1 0.1875 
v -0.0625621 -0.297544 -0.0619713 0.8281 1 0.1875 
v -0.151057 -0.140756 -0.261094 0 0.1719 1 
v -0.17511 0.271637 -0.0440638 0 0 0.75 
v -0.198868 -0.153407 -0.232063 0 0 0.6719 
v -0.252962 0.277853 -0.0395165 0 0 0.6875 
v -0.303458 0.0858945 -0.190188 0 0.8281 1 
v -0.287902 0.0355756 -0.208551 0 0 0.8438 
v -0.470971 0.297547 -0.0346827 0 0 0.5938 
v -0.424489 0.0406168 -0.197798 0 0 0.6875 
v -0.44858 -0.162042 -0.19493 0 0.375 1 
v -0.572066 0.225048 7.88049e-05 0 0.6719 1 
v -0.227023 -0.250369 -0.117576 0 0 0.625 
v -0.230855 -0.272956 -0.057196 0 0.6719 1 
v -0.341336 -0.282165 -0.105805 0 0 0.625 
v -0.410569 -0.297597 -0.0910869 0 0.4219 1 
v -0.379201 -0.307098 -0.0689197 0 0 0.9688 
v -0.480842 -0.271544 -0.102038 0 0 0.5625 
v -0.520479 -0.239328 -0.107526 0 0 0.625 
v -0.515386 -0.156669 -0.122454 0 0.1719 1 
v 0.376566 -0.154779 -0.162102 0 0 0.7969 
v 0.236818 -0.206709 -0.135086 0 0 0.9219 
v 0.263761 -0.234053 -0.170798 0 0 0.5469 
v 0.343145 -0.329824 -0.145615 0 0 0.5156 
v 0.274895 -0.365301 -0.140806 0 0.6719 1 
v 0.302086 -0.39291 -0.112733 0 0 0.875 
v 0.316787 -0.46981 -0.159357 0 0.875 1 
v -0.445484 -0.306199 -0.160586 0 0 1 
v -0.49575 -0.295023 -0.173888 0 0 0.7969 
v -0.485655 -0.33912 -0.172123 0 0 0.5938 
v -0.530829 -0.333886 -0.148963 0 0 0.5625 
v -0.481581 -0.374877 -0.132654 0 0 0.5938 
v -0.346503 -0.165672 -0.166988 0 0.3281 1 
v -0.485252 -0.481884 -0.129794 0.5156 0 0 
v -0.570323 0.284247 -0.0105783 0 0 0.8438 
v -0.529859 0.305926 -0.019628 0 0 0.5938 
v -0.572859 0.23392 -0.0171395 0 0.3281 1 
v 0.836333 0.310835 -0.0525021 0 0.8281 1 
v 0.750655 0.339439 -0.0874372 0 0 0.5781 
v 0.762439 0.377188 -0.0223287 0 0 0.7188 
v 0.73643 0.370154 -0.070888 0 0 0.625 
v 0.956422 0.208065 -0.0417365 0 0 0.5938 
v 0.972845 0.171468 -0.0280109 0 0 0.5938 
v 0.881495 0.165566 -0.0558529 0 0 0.9219 
v 0.902619 0.136414 -0.0283251 0 0 0.875 
v 0.892642 0.133857 -0.0165383 0 0 0.9219 
v 0.674575 0.204437 -0.0869827 0 0.3281 1 
v 0.709446 0.286161 -0.0975343 0 0.1719 1 
v 0.71838 0.416644 -0.0953647 0 0 0.5156 
v 0.777462 0.433605 -0.133075 0 0 0.5938 
v 0.746957 0.400254 -0.12411 0 0 0.625 
v 0.679112 0.371594 -0.0841145 0 0 0.5156 
v 0.677028 0.407815 -0.0482804 0 0 0.5156 
v 0.689047 0.42001 -0.0988131 0 0 0.5938 
v 0.67885 0.363869 -0.0951535 0 0 0.7344 
v 0.697437 0.387729 -0.175605 1 0.8594 0 
v 0.675941 0.300453 -0.0924246 0 0 0.8438 
v 0.705356 0.314426 -0.0858544 0 0 0.6406 
v 0.51483 0.259467 0.0542698 0 0 0.6719 
v 0.492717 0.123594 0.082447 0 0 0.625 
v 0.46003 -0.0224472 0.114945 0 0 0.75 
v 0.312576 0.257103 0.0646468 0 0.1719 1 
v 0.354116 0.0436159 0.201492 0 0.6719 1 
v 0.439877 -0.199279 0.0832753 0 0.5 1 
v 0.35378 -0.237305 0.104826 0 0.1719 1 
v 0.142865 0.191028 0.11211 0 0 0.9688 
v 0.174167 -0.172877 0.147375 0 0.5 1 
v -0.06437 -0.260109 0.147294 0 0 0.5781 
v -0.192841 0.256387 0.116091 0 0 0.9688 
v -0.203903 -0.199347 0.178059 0 0 0.9219 
v -0.267104 -0.0468624 0.224177 0 0 0.5156 
v -0.41337 0.25048 0.140164 0 0 0.5156 
v -0.515883 0.287814 0.0608637 0 0 0.7813 
v -0.45578 -0.203924 0.181364 0 0 0.5156 
v -0.564794 0.1475 0.0593691 0 0 0.5313 
v -0.531833 -0.0218233 0.117094 0 0 0.6563 
v -0.372646 -0.210457 0.154625 0 0 0.625 
v -0.230855 -0.272956 0.0573536 0 0 0.875 
v -0.304606 -0.27936 0.105112 0 0.1719 1 
v -0.373277 -0.298762 0.091307 0 0 0.8438 
v -0.402134 -0.296576 0.0951269 0 0 0.75 
v -0.520479 -0.239328 0.107683 0 0 0.6875 
v -0.566752 -0.118356 0.0529683 0 0 0.8438 
v -0.537327 -0.19049 0.110789 0 0 0.6875 
v 0.309899 -0.204528 0.186437 0 0 0.7344 
v 0.236818 -0.206709 0.135244 0 0.1719 1 
v 0.326078 -0.366664 0.154383 0 0.0156 1 
v 0.257993 -0.263972 0.152555 0 0 0.5781 
v 0.277065 -0.256838 0.0997387 0 0 0.5938 
v 0.2989 -0.440451 0.117918 0 0 0.7188 
v 0.350522 -0.518236 0.108014 0 0 0.75 
v -0.491725 -0.338026 0.171412 0 0 0.625 
v -0.441348 -0.313655 0.140508 0 0 0.5781 
v -0.459881 -0.283025 0.104934 0 0 0.75 
v -0.479783 -0.406066 0.135793 0 0 0.8438 
v -0.506188 -0.409321 0.137875 0 0 0.6563 
v -0.456367 -0.470851 0.174021 0 0 0.8438 
v -0.485252 -0.481884 0.12995 0 0 0.8906 
v -0.590266 -0.250762 0.0131176 0 0.25 1 
v -0.596213 0.234957 0.0100158 0 0 0.5781 
v -0.587395 -0.0320831 0.00831021 0 0 0.5781 
v -0.524657 0.297626 0.0228369 0 0 0.6094 
v -0.563336 -0.0328508 0.00315071 0 0 0.6094 
v -0.577675 0.0236649 -0.0154772 0 0.5 1 
v 0.788555 0.33706 0.0946053 0 0.25 1 
v 0.832965 0.302326 0.0710503 0 0 0.75 
v 0.781205 0.273924 0.094639 0 0 0.625 
v 0.820168 0.341953 0.0551767 0 0 0.5156 
v 0.837697 0.296424 0.0555892 0 0 0.7188 
v 0.779143 0.366002 0.0592472 0 0 0.8438 
v 0.855491 0.260051 0.044824 0 0 0.75 
v 0.882934 0.177336 0.056352 0 0 0.6875 
v 0.941952 0.151506 0.0337791 0 0 0.8438 
v 0.859426 0.164711 0.0614826 0 0 0.5156 
v 0.712034 0.115222 0.0466495 0 0.5781 1 
v 0.719561 0.17921 0.100921 0 0.6719 1 
v 0.6847 0.279765 0.0918354 0 0.1719 1 
v 0.705216 0.422496 0.0946507 0 0 0.8438 
v 0.736745 0.385074 0.0578655 0 0 0.9219 
v 0.738399 0.403629 0.113444 0 0 0.5469 
v 0.777544 0.415103 0.129217 0 0.8281 1 
v 0.70835 0.359806 0.0846439 0 0 0.75 
v 0.691722 0.384041 0.106908 0 0 0.5469 
v 0.679112 0.371594 0.0842722 0 0 0.6094 
v 0.759348 0.419527 0.156479 0 0 0.5313 
v 0.700011 0.40683 0.129891 0 0 0.8125 
v 0.781314 0.430054 0.155726 0 0 0.8438 
v 0.640189 0.364873 0.0590836 0 0 0.8438 
v 0.68842 0.366678 0.124652 0 0 0.7656 
v 0.709733 0.327634 0.0863408 0 0 0.5313 

vn 0.683379 -0.719112 0.125976 
vn -0.424841 0.870657 -0.247925 
vn 0.373319 -0.924416 0.0780262 
vn -0.342575 -0.857564 -0.383702 
vn -0.323744 -0.946092 -0.00997509 
vn 0.226787 -0.973878 -0.0113696 
vn -0.827107 0.0536689 -0.559476 
vn 0.826398 0.342338 0.447069 
vn -0.578936 0.815141 0.0194316 
vn -0.421039 0.469528 -0.77606 
vn -0.22095 0.0698673 -0.972779 
vn -0.242782 0.412327 -0.878091 
vn 0.460662 -0.344479 -0.818001 
vn 0.690193 -0.455742 -0.562078 
vn 0.760185 -0.570611 -0.310679 
vn 0.742266 -0.627116 -0.236148 
vn 0.139452 0.620985 -0.771317 
vn 0.161463 0.127781 -0.978571 
vn -0.0133404 0.721743 -0.692033 
vn -0.0151393 -0.952181 -0.305161 
vn -0.0128547 -0.0994945 -0.994955 
vn 0.0718816 0.995069 -0.0683497 
vn -0.110914 -0.431573 -0.895233 
vn 0.0499488 0.880385 -0.471623 
vn 0.0905003 0.42612 -0.900129 
vn 0.106316 0.0924157 -0.990028 
vn -0.43467 0.299746 -0.849244 
vn -0.436931 0.312486 -0.843471 
vn -0.237708 -0.0641667 -0.969215 
vn -0.932596 0.353271 0.0739219 
vn -0.0249242 -0.795587 -0.605326 
vn 0.0728094 -0.981841 -0.175176 
vn 0.144651 -0.830195 -0.538379 
vn -0.0506069 -0.957315 -0.284581 
vn -0.0521289 -0.994654 -0.0891401 
vn -0.327217 -0.810831 0.485264 
vn -0.890675 -0.434597 0.133503 
vn -0.882162 0.103624 -0.459405 
vn 0.638104 -0.220799 -0.737611 
vn -0.345936 -0.483529 -0.80407 
vn -0.300298 0.0188388 -0.953659 
vn 0.786556 -0.291491 -0.544392 
vn -0.908865 -0.312327 -0.276434 
vn 0.00649663 -0.576243 0.817253 
vn -0.332802 -0.94296 0.00833362 
vn 0.600406 -0.61734 -0.508335 
vn -0.21943 -0.0446803 -0.974605 
vn 0.256677 -0.264272 -0.929665 
vn -0.980293 -0.181257 0.0785657 
vn 0.641213 -0.385926 0.663255 
vn 0.111282 -0.413 -0.903907 
vn 0.680097 -0.728798 -0.0795085 
vn -0.932192 0.186816 -0.31003 
vn 0.0657118 0.97264 -0.22283 
vn 0.500869 -0.810504 -0.303667 
vn 0.769824 0.533207 -0.350801 
vn 0.276377 0.372951 -0.885733 
vn 0.573334 0.803928 -0.158076 
vn 0.795608 0.253992 -0.549997 
vn 0.501291 0.562713 -0.657314 
vn 0.738961 -0.473942 -0.478869 
vn 0.200767 -0.210117 -0.95684 
vn 0.178057 -0.908308 -0.378513 
vn -0.030036 -0.955705 -0.29279 
vn 0.169098 -0.351525 -0.92078 
vn -0.0599966 -0.0584328 -0.996487 
vn 0.582541 0.699891 0.413278 
vn -0.330842 0.787931 -0.519334 
vn 0.918432 -0.393919 -0.036194 
vn -0.549105 0.334048 -0.766091 
vn -0.245913 0.965751 0.082781 
vn -0.54072 0.820775 -0.184253 
vn -0.821041 0.272255 -0.501766 
vn -0.648328 0.00748573 -0.761325 
vn -0.278385 -0.0372017 -0.959749 
vn 0.322607 0.137833 -0.936444 
vn -0.122711 0.378826 0.917297 
vn 0.268661 -0.0846152 0.959511 
vn 0.58559 -0.122151 0.801351 
vn 0.0123608 0.932607 0.360681 
vn 0.197735 0.236122 0.951392 
vn 0.73464 -0.652838 0.184678 
vn 0.664997 -0.69255 0.27956 
vn 0.0622158 0.708441 0.703023 
vn -0.0467086 -0.32553 0.944377 
vn 0.0224964 -0.793428 0.608249 
vn 0.0981659 0.930717 0.352319 
vn 0.0243655 -0.558823 0.828929 
vn -0.00333522 -0.176199 0.984349 
vn -0.24854 0.561492 0.789275 
vn -0.634046 0.560835 0.532399 
vn -0.266545 0.00172494 0.963821 
vn -0.835208 0.155087 0.527613 
vn -0.678365 0.0859967 0.729675 
vn 0.263401 -0.496374 0.827184 
vn 0.0694736 -0.971791 0.22538 
vn 0.136737 -0.829954 0.540813 
vn 0.090727 -0.962553 0.25546 
vn 0.0454795 -0.947619 0.316147 
vn -0.849426 -0.500551 -0.167108 
vn -0.995101 -0.0967085 0.0205213 
vn -0.893091 -0.116648 0.43449 
vn 0.122732 -0.288724 0.949513 
vn -0.415264 -0.509814 0.753422 
vn 0.372997 -0.413615 0.83054 
vn -0.824398 -0.267849 0.498623 
vn -0.179049 -0.845184 -0.503593 
vn -0.898858 -0.382911 0.21315 
vn 0.468795 -0.461962 -0.752876 
vn -0.281962 -0.268793 0.921004 
vn 0.378467 -0.870698 -0.314082 
vn -0.434378 -0.890868 -0.132931 
vn 0.751358 0.0394444 -0.658714 
vn -0.622507 -0.103024 -0.775804 
vn 0.990781 0.0317678 -0.131693 
vn -0.8219 -0.513481 -0.246613 
vn -0.506674 -0.365247 -0.780946 
vn 0.521859 -0.0641685 0.850615 
vn -0.974077 0.0194606 0.225377 
vn -0.466953 0.422091 0.777042 
vn 0.921985 0.0153036 0.386923 
vn -0.50685 0.0543881 -0.860317 
vn 0.240485 0.462511 0.853376 
vn 0.781979 0.0212439 0.622943 
vn 0.252155 -0.00812205 0.967653 
vn 0.769621 0.599626 0.219393 
vn 0.864166 0.0125062 0.503051 
vn 0.228901 0.697605 0.678934 
vn 0.770527 0.532773 0.349917 
vn 0.42092 0.12525 0.898409 
vn 0.510991 -0.67504 0.532174 
vn 0.218842 -0.524541 0.822779 
vn 0.0472068 -0.77412 0.631276 
vn -0.113104 -0.194298 0.9744 
vn -0.331199 0.00542861 0.943545 
vn -0.274094 0.883423 -0.380047 
vn 0.428603 0.901734 0.0563586 
vn 0.893332 -0.235389 0.382819 
vn -0.867566 -0.0259961 0.496642 
vn 0.541085 -0.0835336 0.836809 
vn -0.700299 0.0708302 0.710327 
vn -0.302769 0.223571 0.92647 
vn 0.0302097 0.880308 -0.47344 
vn -0.190039 -0.811596 0.552447 
vn 0.0686587 -0.916358 -0.394429 
vn -0.581206 0.311893 0.751613 
vn 0.263198 0.724537 0.637003 
vn 0.10215 0.034143 0.994183 
f 16//16 14//14 15//15 
f 49//49 52//52 50//50 
f 15//15 39//39 16//16 
f 25//25 26//26 28//28 
f 54//54 118//118 120//120 
f 53//53 54//54 55//55 
f 54//54 27//27 4//4 
f 57//57 59//59 58//58 
f 60//60 8//8 61//61 
f 71//71 58//58 67//67 
f 73//73 70//70 74//74 
f 57//57 76//76 70//70 
f 96//96 97//97 6//6 
f 32//32 31//31 20//20 
f 100//100 114//114 110//110 
f 54//54 90//90 24//24 
f 144//144 139//139 145//145 
f 120//120 4//4 91//91 
f 19//19 18//18 21//21 
f 11//11 10//10 75//75 
f 76//76 66//66 75//75 
f 34//34 5//5 36//36 
f 35//35 5//5 34//34 
f 67//67 69//69 68//68 
f 126//126 127//127 129//129 
f 124//124 126//126 123//123 
f 137//137 136//136 138//138 
f 14//14 16//16 39//39 
f 51//51 46//46 47//47 
f 146//146 147//147 142//142 
f 124//124 123//123 125//125 
f 95//95 111//111 99//99 
f 142//142 140//140 141//141 
f 111//111 113//113 114//114 
f 42//42 43//43 41//41 
f 10//10 2//2 9//9 
f 26//26 23//23 51//51 
f 29//29 28//28 26//26 
f 9//9 146//146 141//141 
f 140//140 148//148 128//128 
f 140//140 142//142 147//147 
f 4//4 30//30 90//90 
f 36//36 50//50 46//46 
f 47//47 48//48 49//49 
f 58//58 126//126 56//56 
f 140//140 137//137 138//138 
f 37//37 36//36 112//112 
f 38//38 49//49 37//37 
f 3//3 15//15 14//14 
f 107//107 104//104 86//86 
f 107//107 105//105 109//109 
f 106//106 107//107 108//108 
f 134//134 132//132 125//125 
f 23//23 26//26 25//25 
f 130//130 129//129 125//125 
f 63//63 61//61 131//131 
f 54//54 53//53 118//118 
f 124//124 127//127 126//126 
f 99//99 98//98 97//97 
f 6//6 98//98 35//35 
f 46//46 34//34 36//36 
f 48//48 46//46 50//50 
f 53//53 122//122 119//119 
f 126//126 128//128 123//123 
f 110//110 115//115 113//113 
f 52//52 49//49 48//48 
f 36//36 5//5 112//112 
f 101//101 102//102 94//94 
f 116//116 114//114 113//113 
f 100//100 112//112 111//111 
f 65//65 1//1 13//13 
f 11//11 12//12 10//10 
f 73//73 75//75 10//10 
f 65//65 11//11 75//75 
f 105//105 83//83 103//103 
f 25//25 21//21 23//23 
f 2//2 10//10 12//12 
f 77//77 80//80 79//79 
f 79//79 80//80 81//81 
f 51//51 23//23 31//31 
f 64//64 131//131 132//132 
f 135//135 134//134 148//148 
f 96//96 86//86 88//88 
f 24//24 28//28 27//27 
f 9//9 2//2 77//77 
f 88//88 86//86 85//85 
f 28//28 29//29 38//38 
f 68//68 69//69 70//70 
f 88//88 89//89 95//95 
f 30//30 7//7 93//93 
f 4//4 118//118 55//55 
f 91//91 90//90 54//54 
f 92//92 95//95 89//89 
f 38//38 47//47 49//49 
f 36//36 37//37 49//49 
f 100//100 102//102 101//101 
f 7//7 38//38 101//101 
f 148//148 140//140 147//147 
f 110//110 92//92 102//102 
f 100//100 37//37 112//112 
f 141//141 144//144 136//136 
f 58//58 137//137 128//128 
f 95//95 92//92 110//110 
f 138//138 144//144 141//141 
f 138//138 141//141 140//140 
f 1//1 78//78 79//79 
f 39//39 15//15 3//3 
f 13//13 14//14 17//17 
f 133//133 135//135 77//77 
f 3//3 40//40 43//43 
f 84//84 80//80 22//22 
f 65//65 64//64 133//133 
f 103//103 81//81 85//85 
f 106//106 105//105 103//103 
f 107//107 3//3 83//83 
f 3//3 86//86 20//20 
f 40//40 20//20 21//21 
f 87//87 22//22 24//24 
f 10//10 9//9 70//70 
f 65//65 75//75 66//66 
f 43//43 42//42 45//45 
f 24//24 25//25 28//28 
f 4//4 27//27 7//7 
f 109//109 105//105 108//108 
f 23//23 20//20 31//31 
f 54//54 120//120 91//91 
f 146//146 142//142 141//141 
f 141//141 137//137 71//71 
f 58//58 59//59 67//67 
f 67//67 72//72 71//71 
f 29//29 47//47 38//38 
f 38//38 7//7 28//28 
f 90//90 91//91 4//4 
f 93//93 94//94 92//92 
f 128//128 126//126 58//58 
f 67//67 59//59 69//69 
f 68//68 72//72 67//67 
f 130//130 131//131 8//8 
f 38//38 37//37 101//101 
f 90//90 30//30 93//93 
f 4//4 120//120 118//118 
f 122//122 55//55 118//118 
f 55//55 54//54 4//4 
f 69//69 59//59 70//70 
f 101//101 37//37 100//100 
f 118//118 119//119 121//121 
f 136//136 144//144 143//143 
f 139//139 138//138 143//143 
f 56//56 126//126 129//129 
f 60//60 129//129 8//8 
f 110//110 111//111 95//95 
f 49//49 50//50 36//36 
f 144//144 138//138 139//139 
f 145//145 143//143 144//144 
f 113//113 111//111 110//110 
f 112//112 99//99 111//111 
f 111//111 114//114 100//100 
f 116//116 113//113 115//115 
f 110//110 114//114 116//116 
f 82//82 14//14 13//13 
f 39//39 3//3 42//42 
f 12//12 11//11 13//13 
f 103//103 83//83 79//79 
f 82//82 83//83 3//3 
f 39//39 41//41 40//40 
f 39//39 18//18 17//17 
f 2//2 12//12 80//80 
f 13//13 11//11 65//65 
f 78//78 1//1 133//133 
f 80//80 84//84 81//81 
f 40//40 41//41 43//43 
f 43//43 44//44 3//3 
f 20//20 23//23 21//21 
f 21//21 18//18 40//40 
f 80//80 17//17 19//19 
f 64//64 66//66 62//62 
f 133//133 1//1 65//65 
f 84//84 87//87 90//90 
f 107//107 83//83 105//105 
f 109//109 108//108 107//107 
f 45//45 42//42 44//44 
f 24//24 19//19 21//21 
f 24//24 22//22 19//19 
f 77//77 146//146 9//9 
f 85//85 89//89 88//88 
f 103//103 104//104 106//106 
f 105//105 106//106 108//108 
f 107//107 106//106 104//104 
f 104//104 85//85 86//86 
f 9//9 71//71 70//70 
f 70//70 73//73 10//10 
f 66//66 76//76 57//57 
f 131//131 64//64 63//63 
f 131//131 130//130 132//132 
f 128//128 148//148 125//125 
f 97//97 96//96 88//88 
f 34//34 46//46 51//51 
f 46//46 48//48 47//47 
f 47//47 29//29 51//51 
f 70//70 71//71 72//72 
f 75//75 73//73 74//74 
f 76//76 75//75 74//74 
f 76//76 74//74 70//70 
f 70//70 59//59 57//57 
f 61//61 63//63 62//62 
f 131//131 61//61 8//8 
f 128//128 137//137 140//140 
f 147//147 146//146 148//148 
f 6//6 32//32 96//96 
f 34//34 33//33 35//35 
f 27//27 28//28 7//7 
f 7//7 30//30 4//4 
f 62//62 57//57 56//56 
f 60//60 62//62 129//129 
f 97//97 95//95 99//99 
f 112//112 5//5 35//35 
f 118//118 121//121 122//122 
f 122//122 121//121 117//117 
f 117//117 119//119 122//122 
f 117//117 121//121 119//119 
f 14//14 82//82 3//3 
f 79//79 82//82 13//13 
f 79//79 13//13 1//1 
f 83//83 82//82 79//79 
f 3//3 44//44 42//42 
f 42//42 41//41 39//39 
f 39//39 40//40 18//18 
f 18//18 19//19 17//17 
f 17//17 14//14 39//39 
f 13//13 17//17 12//12 
f 79//79 78//78 77//77 
f 103//103 79//79 81//81 
f 81//81 89//89 85//85 
f 85//85 104//104 103//103 
f 3//3 107//107 86//86 
f 86//86 96//96 20//20 
f 20//20 40//40 3//3 
f 12//12 17//17 80//80 
f 80//80 77//77 2//2 
f 133//133 134//134 135//135 
f 77//77 78//78 133//133 
f 90//90 89//89 81//81 
f 90//90 81//81 84//84 
f 20//20 96//96 32//32 
f 45//45 44//44 43//43 
f 21//21 25//25 24//24 
f 80//80 19//19 22//22 
f 22//22 87//87 84//84 
f 132//132 134//134 133//133 
f 132//132 133//133 64//64 
f 146//146 77//77 135//135 
f 146//146 135//135 148//148 
f 90//90 87//87 24//24 
f 24//24 27//27 54//54 
f 92//92 89//89 90//90 
f 92//92 90//90 93//93 
f 88//88 95//95 97//97 
f 33//33 31//31 32//32 
f 33//33 32//32 6//6 
f 64//64 65//65 66//66 
f 62//62 63//63 64//64 
f 148//148 134//134 125//125 
f 125//125 123//123 128//128 
f 101//101 94//94 93//93 
f 101//101 93//93 7//7 
f 92//92 94//94 102//102 
f 102//102 100//100 110//110 
f 6//6 97//97 98//98 
f 98//98 99//99 35//35 
f 35//35 33//33 6//6 
f 51//51 31//31 33//33 
f 51//51 33//33 34//34 
f 62//62 66//66 57//57 
f 57//57 58//58 56//56 
f 56//56 129//129 62//62 
f 62//62 60//60 61//61 
f 130//130 8//8 129//129 
f 129//129 127//127 125//125 
f 125//125 132//132 130//130 
f 125//125 127//127 124//124 
f 35//35 99//99 112//112 
f 26//26 51//51 29//29 
f 141//141 136//136 137//137 
f 137//137 58//58 71//71 
f 71//71 9//9 141//141 
f 53//53 55//55 122//122 
f 119//119 118//118 53//53 
f 116//116 115//115 110//110 
f 138//138 136//136 143//143 
f 143//143 145//145 139//139 
f 70//70 72//72 68//68 
f 52//52 48//48 50//50 
